<svg width="37" height="43" viewBox="0 0 37 43" fill="none" xmlns="http://www.w3.org/2000/svg">
<path d="M35.0528 17.1219C33.732 16.2814 32.3511 15.501 30.9703 14.8406C27.4882 13.1596 23.9461 11.5386 20.404 9.91764C19.5635 9.55742 19.1432 9.13717 19.2633 8.17659C19.3834 7.39613 18.8431 6.91584 18.0626 6.79577C17.7624 6.73573 17.4622 6.6757 17.2221 6.55562C16.0814 6.13537 15.5411 4.87462 15.9013 3.73394C16.3216 2.59325 17.5223 1.93286 18.663 2.29307C19.8637 2.65329 20.344 3.49379 20.404 4.63447C20.464 5.23483 20.8242 5.41494 21.3646 5.41494C21.9049 5.41494 22.2051 5.11476 22.2051 4.57444C22.3251 2.05293 19.9837 -0.228436 17.042 0.431959C15.1208 0.852211 13.9802 2.35311 13.8601 4.39433C13.74 6.0153 14.8207 7.63627 16.3816 8.41674C16.5617 8.47677 16.7418 8.77695 16.7418 8.95706C16.7418 9.1972 16.6217 9.55742 16.4416 9.67749C14.1603 10.8182 11.8789 11.8988 9.65757 13.0395C7.13606 14.3603 4.61455 15.6811 2.15307 17.1219C0.712212 17.9625 0.111853 19.4033 0.351996 21.0243C0.59214 22.7653 1.61275 23.906 3.29375 24.3863C4.01418 24.5664 4.79465 24.5664 5.57512 24.6264C5.57512 24.9266 5.57512 25.1668 5.57512 25.4069C5.57512 30.2098 5.57512 35.0127 5.57512 39.7555C5.57512 41.1964 6.77584 42.217 7.97656 42.217C14.8807 42.1569 21.7248 42.1569 28.6289 42.217C29.8897 42.217 31.0904 41.1363 31.0904 39.7555C31.0304 34.9526 31.0904 30.1497 31.0904 25.2868C31.0904 25.0467 31.0904 24.8065 31.0904 24.5664C31.8108 24.5064 32.4112 24.5064 33.0716 24.4463C34.6325 24.3263 36.0734 23.0655 36.4936 21.5046C36.9739 19.7635 36.4336 18.0225 35.0528 17.1219ZM28.5689 40.8962C25.5671 40.8962 22.6253 40.8962 19.6235 40.8962C16.6818 40.8962 13.74 40.8962 10.7982 40.8962C9.95774 40.8962 9.05721 40.8962 8.21671 40.8361C7.3762 40.7761 7.01599 40.4159 7.01599 39.5754C7.01599 34.7725 7.01599 29.9696 7.01599 25.2268C7.01599 24.4463 7.01599 23.7259 7.01599 22.9454C7.01599 21.7447 7.79645 20.8442 8.99717 20.7241C10.0778 20.604 11.2185 20.604 12.2991 20.604C17.2221 20.604 22.145 20.604 27.068 20.604C27.5483 20.604 28.0886 20.6641 28.5689 20.8442C29.4694 21.2044 30.0097 21.9248 30.0097 22.9454C30.0097 28.4687 30.0097 33.992 30.0097 39.5154C29.9497 40.4159 29.5295 40.8962 28.5689 40.8962ZM34.8126 20.9042C34.5124 21.9849 33.6119 22.5852 32.4112 22.5852C32.3511 22.5852 32.2911 22.5852 32.111 22.5852C31.5106 22.7653 31.2105 22.5252 31.0304 21.8047C30.6101 20.3039 29.1692 19.4633 27.7284 19.4633C21.6047 19.5234 15.421 19.5234 9.29735 19.4633C7.79645 19.4633 6.29556 20.484 5.93534 22.0449C5.81527 22.4651 5.63516 22.7053 5.21491 22.5852C4.61455 22.4651 3.89412 22.4651 3.41383 22.165C2.09304 21.4445 1.97297 19.5834 3.23372 18.7429C4.61455 17.7823 6.11545 16.8818 7.61635 16.1013C10.9784 14.3603 14.3404 12.7393 17.7024 11.1184C17.9425 10.9983 18.3628 10.9382 18.6029 11.0583C22.8054 13.0395 27.008 15.0207 31.1504 17.0019C31.9909 17.4221 32.8314 17.9024 33.6719 18.3827C34.6325 19.0431 35.0528 19.9436 34.8126 20.9042Z" fill="#FCA92C"/>
<path d="M27.308 35.9132C21.4244 35.9132 15.4809 35.9132 9.59735 35.9132C8.69681 35.9132 8.15649 36.3935 8.15649 37.1139C8.15649 37.8944 8.63678 38.2546 9.53732 38.2546C12.4791 38.2546 15.4208 38.2546 18.4226 38.2546C21.4244 38.2546 24.4262 38.2546 27.428 38.2546C27.7882 38.2546 28.2685 38.0745 28.4486 37.8343C28.6888 37.5341 28.7488 36.9938 28.6287 36.6336C28.4486 36.0933 27.9083 35.9132 27.308 35.9132Z" fill="#FCA92C"/>
</svg>
