<svg width="38" height="39" viewBox="0 0 38 39" fill="none" xmlns="http://www.w3.org/2000/svg">
<path d="M36.1358 0.980946C34.8625 0.646204 33.5891 1.2599 33.2569 2.76623C32.7033 4.94205 32.1496 7.11787 31.596 9.2379C31.4853 9.74002 31.3192 9.8516 30.8763 9.8516C28.0527 9.74002 25.1738 9.62844 22.3502 9.51686C21.5751 9.46107 21.0215 9.96318 20.9107 10.6885C20.8554 11.4695 21.2429 12.0832 22.018 12.139C22.8485 12.1948 23.6789 12.2506 24.5094 12.2506C26.281 12.3064 28.0527 12.3622 29.8244 12.4179C30.1565 12.4179 30.4333 12.4737 30.8209 12.5295C30.3226 14.4264 29.8797 16.3233 29.3814 18.2201C28.1081 18.1643 26.8901 18.1086 25.672 18.0528C23.5129 17.997 21.409 17.8854 19.2498 17.8296C17.2567 17.7738 15.2636 17.7738 13.2705 17.6622C12.0525 17.6064 11.222 18.4991 10.9452 19.5591C10.7238 20.5633 11.2774 21.7349 12.2739 22.1812C12.6061 22.3486 12.6061 22.4602 12.4954 22.7391C12.1632 23.6318 11.8864 24.5244 11.6096 25.3613C11.0559 26.8676 10.5577 28.374 10.004 29.8803C9.39503 29.8803 8.84138 29.8803 8.28774 29.8803C5.96245 29.8245 3.69253 29.7129 1.36724 29.6571C0.70287 29.6571 0.20459 30.215 0.20459 30.9403C0.20459 31.554 0.70287 32.1677 1.36724 32.2235C4.52299 32.3351 7.62337 32.4467 10.7791 32.5582C11.5542 32.5582 11.9418 32.2793 12.2186 31.554C12.8276 29.8245 13.4366 28.095 14.0456 26.3655C14.4885 25.0823 14.9314 23.7434 15.3743 22.6276C17.0906 22.6276 18.6962 22.6276 20.3017 22.6276C20.6339 22.6276 20.8554 22.7391 20.8554 23.1297C20.8554 24.5802 20.8554 26.0308 20.8554 27.5371C20.8554 27.7603 20.6893 28.095 20.4678 28.2624C19.9696 28.7645 19.582 29.3224 19.582 30.1035C19.582 31.6098 19.582 33.0603 19.5266 34.5667C19.5266 35.013 19.5266 35.5151 19.5266 36.0172C19.2498 36.0172 19.0837 36.0172 18.9176 36.0172C16.8138 36.0172 14.6546 36.0172 12.5508 36.0172C11.6096 36.0172 11.1113 36.5751 11.1113 37.412C11.1113 38.193 11.6649 38.6394 12.5508 38.6394C18.973 38.6394 25.3952 38.6394 31.8175 38.6394C32.6479 38.6394 33.2016 38.193 33.2016 37.412C33.2016 36.5751 32.7033 36.0172 31.8728 36.0172C30.4334 36.0172 28.9939 36.0172 27.5544 36.0172C26.6686 36.0172 25.7274 36.0172 24.7862 36.0172C24.7862 34.1761 24.7862 32.4467 24.7862 30.6614C24.7862 29.7129 24.5094 28.8761 23.7897 28.2066C23.6236 28.0392 23.5129 27.7603 23.5129 27.5929C23.5129 26.1424 23.5129 24.6918 23.5129 23.1855C23.5129 23.0181 23.5682 22.9065 23.5682 22.6834C23.9558 22.7391 24.3433 22.7949 24.6755 22.7949C26.7793 22.8507 28.8278 22.9065 30.9316 22.9623C32.2604 23.0181 33.3676 22.1812 33.6445 20.9539C35.0839 15.2633 36.468 9.57265 37.9075 3.93783C38.129 2.76623 37.52 1.31569 36.1358 0.980946Z" fill="#FCA92C"/>
</svg>
