<svg width="41" height="31" viewBox="0 0 41 31" fill="none" xmlns="http://www.w3.org/2000/svg">
<path d="M34.8662 0.776081C34.0257 0.175722 33.1852 0.475901 32.4048 0.956188C31.5042 1.55655 31.084 2.39705 30.6637 3.35763C29.9433 4.9786 29.2829 6.59957 28.4424 8.1605C26.6413 11.3424 24.2399 14.1641 21.3582 16.4455C17.6359 19.4473 13.4935 21.6085 8.75062 22.5091C7.60993 22.7492 6.34918 22.9293 5.86889 24.1901C5.56871 24.8505 5.3886 25.5709 5.2085 26.2914C5.32857 28.0324 6.16907 29.4733 7.60993 30.1337C8.99076 30.794 10.3115 30.5539 11.5723 30.0136C15.4146 28.5727 18.9567 26.5315 22.1987 23.9499C24.9003 21.7887 27.2417 19.3272 29.2229 16.5655C31.144 13.9239 32.765 11.0422 34.0858 7.98039C34.7462 6.41946 35.5266 4.85852 35.7067 3.17752C35.7668 2.33702 35.7067 1.37644 34.8662 0.776081ZM8.87069 27.9123C8.09022 27.9123 7.36979 27.1919 7.36979 26.4715C7.36979 25.751 8.09022 25.0906 8.87069 25.0306C9.65115 25.0306 10.2515 25.631 10.2515 26.4715C10.2515 27.2519 9.65115 27.9123 8.87069 27.9123ZM33.3653 3.89795C32.825 3.89795 32.4048 3.4777 32.4048 2.99741C32.4048 2.51712 32.8851 2.03684 33.4254 2.03684C33.9057 2.03684 34.386 2.57716 34.3259 2.99741C34.2659 3.41766 33.7856 3.89795 33.3653 3.89795Z" fill="#FCA92C"/>
<path d="M14.394 9.24017C16.9756 8.81992 19.4971 8.21956 22.0186 7.73927C23.8797 7.37906 23.8797 7.37906 24.6001 5.57798C24.6602 5.39787 24.9003 5.15773 25.1405 5.15773C26.101 4.97762 27.1216 4.79751 28.0822 4.6174C28.5025 4.55737 29.1028 4.4373 29.2829 4.19715C29.7032 3.47672 29.9433 2.63622 30.3035 1.79572C20.2175 2.87636 10.1915 3.89697 0.105469 4.97762C0.52572 6.35845 1.06604 7.49913 2.14669 8.33963C3.70763 9.60039 5.62878 10.0206 7.48989 9.9606C9.83129 9.84053 12.1127 9.60039 14.394 9.24017ZM2.38684 5.87816C6.94957 7.79931 11.5723 7.85934 16.2551 7.55916C13.6736 8.09949 11.032 8.51974 8.39043 8.39967C6.28917 8.2796 4.24795 7.85934 2.68702 6.23837C2.62698 6.17834 2.56694 6.05827 2.38684 5.87816Z" fill="#FCA92C"/>
<path d="M39.6691 1.07623C38.6485 0.716017 37.5679 1.0162 36.6073 1.13627C36.6073 2.15688 36.6073 3.11745 36.6073 4.07803C37.0276 4.01799 37.5078 4.07803 37.9281 3.95796C38.6485 3.77785 39.3689 3.5377 39.9693 3.17749C40.7498 2.63717 40.5697 1.37641 39.6691 1.07623Z" fill="#FCA92C"/>
</svg>
