<svg width="42" height="42" viewBox="0 0 42 42" fill="none" xmlns="http://www.w3.org/2000/svg">
<path d="M41.0399 27.2298C41.0399 27.0497 40.8598 26.8696 40.7397 26.6895C40.6196 26.8095 40.4395 26.8696 40.3195 27.0497C39.539 28.3705 38.3983 29.0309 36.7773 28.9108C36.3571 28.8508 36.237 28.7307 36.177 28.3104C36.0569 27.4099 35.9969 26.5094 35.6367 25.6689C34.556 23.0273 31.4942 21.5264 28.9727 22.4269C28.1322 22.7271 27.3517 23.3275 26.4512 23.8678C17.9861 19.3651 9.28089 14.8024 0.575684 10.2396C1.17604 11.0801 1.89647 11.7405 2.61691 12.4009C6.03895 15.4027 9.461 18.4045 12.883 21.4663C14.9243 23.2674 17.2056 24.7083 19.9073 25.3086C21.8284 25.7889 23.6895 26.4493 25.5506 27.0497C25.5506 27.2898 25.5506 27.53 25.5506 27.7701C25.5506 28.0103 25.6107 28.2504 25.6707 28.4905C26.211 30.7119 27.5318 32.3328 29.6931 32.9932C31.7343 33.5936 33.5354 33.1133 34.9763 31.4923C35.1564 31.3122 35.3965 31.1922 35.6367 31.1922C36.7773 31.2522 37.918 30.952 38.9386 30.4717C40.6196 29.5712 41.16 28.8508 41.0399 27.2298ZM17.746 23.0873C17.1456 23.0873 16.6053 22.547 16.6053 21.9466C16.6053 21.3463 17.1456 20.866 17.746 20.866C18.3463 20.866 18.8866 21.3463 18.8866 21.9466C18.8866 22.487 18.2863 23.0873 17.746 23.0873ZM31.134 31.1922C29.1528 31.1321 27.5919 29.6913 27.5318 27.4099C27.4718 25.4287 29.2128 24.1079 30.7137 24.228C32.6349 24.3481 34.2558 25.969 34.2558 27.9502C34.3159 29.8714 32.875 31.2522 31.134 31.1922Z" fill="#FCA92C"/>
<path d="M19.1269 31.1921C19.3671 29.6912 19.6072 28.1903 19.9074 26.7495C19.9674 26.3893 19.8474 26.2092 19.4271 26.0891C18.2264 25.7289 17.0257 25.3086 15.7649 24.8884C15.8249 26.9896 15.885 29.0909 15.945 31.2522C15.7049 31.3722 15.5248 31.4323 15.2846 31.5524C13.4235 32.573 12.583 34.1939 12.583 36.2352C12.583 38.0963 13.4235 39.6572 14.9244 40.7979C17.0857 42.4789 20.0275 42.4189 21.8886 40.3776C23.5095 38.5766 23.6296 35.7549 22.1888 33.5936C21.5284 32.3929 20.4477 31.6124 19.1269 31.1921ZM18.2864 39.9574C16.3052 39.9574 14.6242 38.2764 14.6242 36.2352C14.6242 34.1939 15.885 32.9332 17.7461 32.9332C19.9674 32.9332 21.4683 35.0344 21.3483 36.7154C21.4683 38.2163 20.2676 39.9574 18.2864 39.9574Z" fill="#FCA92C"/>
<path d="M15.4046 11.4403C15.4647 13.1814 15.4647 14.9825 15.5247 16.7235C15.5247 16.9036 15.6448 17.2038 15.8249 17.3239C17.2657 18.1043 18.7066 18.8247 20.2075 19.6052C20.0274 17.4439 15.6448 1.65447 14.9844 0.99408C15.0444 1.29426 15.0444 1.59444 15.1044 1.83458C15.2245 5.01649 15.2846 8.25843 15.4046 11.4403Z" fill="#FCA92C"/>
</svg>
