<svg width="95" height="57" viewBox="0 0 95 57" fill="none" xmlns="http://www.w3.org/2000/svg">
<path d="M45.5414 8.84601L44.8151 6.76616H44.8006C44.8213 7.07474 44.8296 7.36481 44.8296 7.63636V8.84601H44.4592V6.36295H45.0365L45.7318 8.34405H45.7421L46.4581 6.36295H47.0375V8.84601H46.6444V7.61168C46.6444 7.48619 46.6444 7.32572 46.6444 7.12617C46.6444 6.92662 46.6568 6.8073 46.6609 6.76616H46.6464L45.9035 8.84601H45.5414Z" fill="white"/>
<path d="M49.0426 8.84601L48.3163 6.76616H48.3018C48.3225 7.07474 48.3308 7.36481 48.3308 7.63636V8.84601H47.9604V6.36295H48.5377L49.233 8.34405H49.2496L49.9655 6.36295H50.545V8.84601H50.1518V7.61168C50.1518 7.48619 50.1518 7.32572 50.1518 7.12617C50.1518 6.92662 50.1642 6.8073 50.1683 6.76616H50.1559L49.4089 8.84601H49.0426Z" fill="white"/>
<path d="M47.1431 12.7979H46.6713L46.0505 11.7693L45.4173 12.7979H44.9786L45.8063 11.5081L45.0282 10.3087H45.4835L46.0629 11.2509L46.6423 10.3087H47.0851L46.2988 11.5204L47.1431 12.7979Z" fill="white"/>
<path d="M49.6097 10.3087H50.0235L49.1461 12.7979H48.7157L47.8404 10.3087H48.2543L48.7757 11.8557C48.8103 11.9495 48.84 12.0449 48.8647 12.1417C48.8957 12.259 48.9144 12.3474 48.9247 12.4009C48.9392 12.3145 48.962 12.2158 48.993 12.1026C49.024 11.9895 49.0489 11.8969 49.0675 11.8496L49.6097 10.3087Z" fill="white"/>
<path d="M47.499 56.4706L47.35 56.4274L0 42.4712V13.9994L47.499 0L47.65 0.0432015L95 13.9994V42.4712L47.499 56.4706ZM1.05328 41.6895L47.499 55.3782L93.9467 41.6895V14.7811L47.499 1.09238L1.05328 14.7811V41.6895Z" fill="#B88C50"/>
<path d="M65.3261 44.8473C65.1987 44.848 65.0754 44.8028 64.9789 44.7201C64.8824 44.6374 64.8193 44.5228 64.8011 44.3975C64.7829 44.2722 64.811 44.1445 64.8801 44.0381C64.9492 43.9318 65.0547 43.8538 65.1771 43.8187L87.8609 37.1328V19.2638L63.7037 12.1746C63.6374 12.1552 63.5756 12.1229 63.5219 12.0797C63.4681 12.0365 63.4234 11.9832 63.3904 11.9229C63.3573 11.8625 63.3365 11.7962 63.3292 11.7279C63.3219 11.6596 63.3283 11.5904 63.3478 11.5245C63.3674 11.4586 63.3998 11.3972 63.4433 11.3437C63.4867 11.2903 63.5403 11.2458 63.6011 11.213C63.6618 11.1801 63.7284 11.1595 63.7972 11.1522C63.8659 11.145 63.9354 11.1512 64.0017 11.1707L88.9142 18.482V37.9248L65.4751 44.8329C65.4263 44.8447 65.3762 44.8495 65.3261 44.8473Z" fill="#B88C50"/>
<path d="M29.7816 44.909C29.7312 44.9093 29.681 44.9023 29.6326 44.8885L6.08588 37.9783V18.5355L31.1639 11.1439C31.231 11.1222 31.3018 11.1142 31.3721 11.1203C31.4424 11.1263 31.5108 11.1465 31.5731 11.1794C31.6355 11.2123 31.6905 11.2574 31.7349 11.3119C31.7793 11.3664 31.8123 11.4293 31.8317 11.4967C31.8512 11.5642 31.8568 11.6348 31.8482 11.7045C31.8396 11.7741 31.817 11.8413 31.7817 11.9021C31.7464 11.9629 31.6991 12.0159 31.6428 12.0582C31.5864 12.1004 31.522 12.1309 31.4536 12.1479L7.13916 19.3173V37.1965L29.9305 43.8845C30.0563 43.9163 30.1658 43.9932 30.238 44.1005C30.3101 44.2077 30.3398 44.3377 30.3213 44.4654C30.3028 44.5932 30.2375 44.7095 30.1378 44.7922C30.0381 44.8749 29.9113 44.9179 29.7816 44.9131V44.909Z" fill="#B88C50"/>
<path d="M47.5854 27.2514L46.6177 27.6649L46.6946 27.8425L47.6622 27.429L47.5854 27.2514Z" fill="#1D1D1B"/>
<path d="M50.3484 41.9158C50.2528 41.9158 50.1589 41.8899 50.0769 41.841C49.9949 41.7921 49.9278 41.722 49.8828 41.6381C49.6138 41.134 48.7157 39.4492 47.499 37.1328C46.2263 39.5603 45.3055 41.2863 45.1172 41.6381C45.0483 41.7547 44.9367 41.8403 44.8059 41.8771C44.675 41.9139 44.5348 41.8991 44.4147 41.8356C44.2946 41.7722 44.2037 41.6651 44.1611 41.5367C44.1185 41.4083 44.1274 41.2684 44.186 41.1464C44.3929 40.7535 45.5228 38.6448 47.0334 35.7565L47.499 34.8637L47.9666 35.7565C49.4151 38.5234 50.5119 40.5807 50.814 41.1464C50.8564 41.2263 50.8773 41.3156 50.8748 41.4059C50.8722 41.4962 50.8463 41.5843 50.7995 41.6616C50.7526 41.739 50.6865 41.8031 50.6075 41.8476C50.5285 41.8921 50.4392 41.9156 50.3484 41.9158ZM52.7674 40.0808C52.7313 40.0803 52.6953 40.0768 52.6598 40.0705C51.9087 39.9182 50.7664 39.3772 49.5931 37.6717C48.4095 35.847 48.8316 33.8844 49.0199 33.2467L48.7054 32.5205L48.8357 32.2983C54.0897 22.111 57.1916 15.4682 57.8103 13.086C58.6877 9.70596 57.8331 7.95321 57.2309 7.20027L45.9801 33.2446C46.1684 33.8824 46.6009 35.8429 45.4152 37.6574C44.2336 39.3751 43.0913 39.9203 42.3381 40.0684C42.2021 40.0927 42.062 40.063 41.9478 39.9857C41.8336 39.9084 41.7544 39.7896 41.7273 39.655C41.7003 39.5203 41.7274 39.3804 41.8029 39.2654C41.8784 39.1504 41.9963 39.0694 42.1312 39.0398C42.5906 38.9472 43.5135 38.5666 44.5398 37.0752C45.649 35.3677 44.9351 33.4174 44.9268 33.3989L44.8523 33.1932L45.1337 32.5472C41.4648 25.4293 36.9848 16.4084 36.1881 13.339C34.752 7.80303 37.5663 5.93302 37.6863 5.84867L38.2098 5.51129L47.5093 27.0421L56.8212 5.51129L57.3199 5.86102C57.4399 5.93714 60.2542 7.81537 58.8181 13.3513C58.0214 16.4207 53.5413 25.4416 49.8725 32.5596L50.1539 33.2055L50.0794 33.4113C50.0794 33.4298 49.3655 35.3924 50.4746 37.0998C51.4927 38.579 52.4156 38.9513 52.875 39.0521C52.9948 39.0853 53.0989 39.1594 53.1691 39.2614C53.2393 39.3634 53.271 39.4868 53.2586 39.6097C53.2462 39.7327 53.1906 39.8474 53.1015 39.9335C53.0124 40.0197 52.8955 40.0718 52.7716 40.0808H52.7674ZM37.7773 7.20027C37.1772 7.95115 36.3185 9.70595 37.1979 13.088C37.8022 15.4209 40.7923 21.8394 45.8476 31.6688L46.5595 27.5256L37.7773 7.20027Z" fill="white"/>
<path d="M17.9327 33.5079C17.9327 34.0325 17.7816 34.3925 17.4795 34.5921C17.1774 34.7916 16.7221 34.8883 16.1179 34.8883H14.092V20.8993H16.1179C16.7221 20.8993 17.1774 21.0001 17.4795 21.1976C17.7816 21.3951 17.9327 21.7571 17.9327 22.2817V26.8693C17.945 27.0117 17.9225 27.1549 17.867 27.2868C17.8115 27.4186 17.7247 27.5351 17.614 27.6264C17.3268 27.8152 16.9996 27.9356 16.658 27.9781V28.0357C16.9938 28.0464 17.3219 28.1382 17.614 28.3032C17.727 28.3905 17.8157 28.5052 17.8715 28.6363C17.9273 28.7674 17.9483 28.9105 17.9327 29.052V33.5079ZM16.5545 22.4339C16.5545 22.0492 16.3931 21.8579 16.0724 21.8579H15.4516V27.4803H16.0724C16.3931 27.4803 16.5545 27.2951 16.5545 26.9248V22.4339ZM16.5545 29.0746C16.5545 28.7023 16.3931 28.5171 16.0724 28.5171H15.4516V33.833H16.0724C16.3931 33.833 16.5545 33.6478 16.5545 33.2775V29.0746Z" fill="white"/>
<path d="M25.8291 34.8883H24.3992L24.2647 32.3374H23.2425L23.1266 34.8883H21.6015L22.6817 20.8993H24.751L25.8291 34.8883ZM23.3004 31.4158H24.2109L23.7639 22.6294L23.3004 31.4158Z" fill="white"/>
<path d="M33.2993 31.9527C33.2993 32.144 33.2993 32.3909 33.3097 32.6912C33.32 32.9916 33.3283 33.294 33.3469 33.5943C33.3655 33.8947 33.3904 34.1662 33.4152 34.4172C33.4225 34.581 33.4553 34.7427 33.5125 34.8966H32.1033C32.0462 34.7531 32.0168 34.6003 32.0164 34.446C31.9957 34.2101 31.9791 33.9358 31.9667 33.6231C31.9543 33.3166 31.9439 33.006 31.9377 32.7015C31.9315 32.397 31.9377 32.1378 31.9377 31.9342V29.0746C31.9377 28.7023 31.7763 28.5171 31.4535 28.5171H30.8327V34.8945H29.4628V20.9054H31.4887C32.0929 20.9054 32.5482 21.0062 32.8503 21.2037C33.1524 21.4012 33.3035 21.7633 33.3035 22.2879V26.8755C33.3158 27.0179 33.2933 27.1611 33.2378 27.293C33.1823 27.4248 33.0955 27.5413 32.9848 27.6325C32.698 27.8228 32.3708 27.9446 32.0288 27.9884V28.046C32.3646 28.0567 32.6927 28.1485 32.9848 28.3135C33.0978 28.4008 33.1865 28.5155 33.2423 28.6466C33.298 28.7777 33.3191 28.9208 33.3035 29.0623L33.2993 31.9527ZM31.9294 22.4339C31.9294 22.0492 31.768 21.8579 31.4452 21.8579H30.8244V27.4803H31.4452C31.768 27.4803 31.9294 27.2951 31.9294 26.9248V22.4339Z" fill="white"/>
<path d="M66.4559 33.5079C66.4559 34.0325 66.3049 34.3925 66.0027 34.5921C65.7006 34.7916 65.2454 34.8883 64.6411 34.8883H62.6132V20.8993H64.6411C65.2454 20.8993 65.6986 21.0001 66.0027 21.1976C66.3069 21.3951 66.4559 21.7571 66.4559 22.2817V26.8693C66.4679 27.0117 66.4452 27.1548 66.3898 27.2866C66.3343 27.4184 66.2477 27.5349 66.1373 27.6264C65.8503 27.8142 65.5241 27.9345 65.1833 27.9781V28.0357C65.519 28.0472 65.8469 28.139 66.1393 28.3032C66.2521 28.3908 66.3405 28.5055 66.3962 28.6366C66.452 28.7676 66.4732 28.9106 66.458 29.052L66.4559 33.5079ZM65.084 22.4339C65.084 22.0492 64.9226 21.8579 64.6018 21.8579H63.981V27.4803H64.6018C64.9226 27.4803 65.084 27.2951 65.084 26.9248V22.4339ZM65.084 29.0746C65.084 28.7023 64.9226 28.5171 64.6018 28.5171H63.981V33.833H64.6018C64.9226 33.833 65.084 33.6478 65.084 33.2775V29.0746Z" fill="white"/>
<path d="M73.444 28.3052H71.7637V33.7383H73.6261V34.8883H70.3939V20.8993H73.6179V22.0513H71.7555V27.2334H73.4358L73.444 28.3052Z" fill="white"/>
<path d="M81.1666 31.9527C81.1666 32.144 81.1666 32.3909 81.1666 32.6912C81.1666 32.9916 81.1873 33.294 81.206 33.5943C81.2246 33.8947 81.2474 34.1662 81.2743 34.4172C81.2822 34.5808 81.3143 34.7423 81.3694 34.8966H79.9602C79.9055 34.7524 79.8761 34.6 79.8733 34.446C79.8547 34.2094 79.8382 33.9379 79.8257 33.6231C79.8133 33.3084 79.803 33.006 79.7968 32.7015C79.7906 32.397 79.7864 32.1378 79.7864 31.9342V29.0746C79.7864 28.7023 79.625 28.5171 79.3043 28.5171H78.6835V34.8945H77.3115V20.9054H79.3394C79.9437 20.9054 80.3969 21.0062 80.699 21.2037C81.0011 21.4012 81.1542 21.7633 81.1542 22.2879V26.8755C81.1662 27.0178 81.1435 27.161 81.0881 27.2928C81.0326 27.4245 80.946 27.5411 80.8356 27.6325C80.5484 27.8221 80.2213 27.9438 79.8795 27.9884V28.046C80.2152 28.0575 80.5431 28.1492 80.8356 28.3135C80.9483 28.4011 81.0367 28.5158 81.0925 28.6468C81.1482 28.7779 81.1695 28.9208 81.1542 29.0623L81.1666 31.9527ZM79.7947 22.4339C79.7947 22.0492 79.6333 21.8579 79.3125 21.8579H78.6918V27.4803H79.3125C79.6333 27.4803 79.7947 27.2951 79.7947 26.9248V22.4339Z" fill="white"/>
<path d="M40.6558 49.2683C39.6285 49.2683 38.6243 48.9655 37.7701 48.3981C36.916 47.8307 36.2503 47.0242 35.8572 46.0807C35.464 45.1372 35.3612 44.099 35.5616 43.0973C35.762 42.0957 36.2567 41.1756 36.9831 40.4535C37.7095 39.7313 38.6349 39.2395 39.6425 39.0403C40.65 38.8411 41.6943 38.9433 42.6434 39.3341C43.5925 39.725 44.4037 40.3868 44.9744 41.2359C45.5451 42.0851 45.8497 43.0834 45.8497 44.1047C45.8481 45.4737 45.3003 46.7861 44.3266 47.7541C43.3529 48.7221 42.0328 49.2667 40.6558 49.2683ZM40.6558 39.9903C39.8372 39.9903 39.0371 40.2316 38.3565 40.6837C37.6759 41.1358 37.1454 41.7783 36.8322 42.5302C36.5189 43.282 36.437 44.1093 36.5967 44.9074C36.7564 45.7055 37.1505 46.4386 37.7293 47.014C38.3081 47.5894 39.0455 47.9813 39.8484 48.1401C40.6512 48.2988 41.4833 48.2173 42.2395 47.9059C42.9958 47.5945 43.6421 47.0672 44.0969 46.3905C44.5517 45.7139 44.7944 44.9184 44.7944 44.1047C44.7944 43.5644 44.6873 43.0293 44.4794 42.5302C44.2714 42.031 43.9665 41.5774 43.5822 41.1953C43.1979 40.8133 42.7417 40.5102 42.2395 40.3034C41.7374 40.0967 41.1993 39.9903 40.6558 39.9903Z" fill="white"/>
<path d="M54.3422 49.2683C53.3149 49.2683 52.3107 48.9655 51.4565 48.3981C50.6024 47.8307 49.9367 47.0242 49.5436 46.0807C49.1504 45.1372 49.0476 44.099 49.248 43.0973C49.4484 42.0957 49.9431 41.1756 50.6695 40.4535C51.3959 39.7313 52.3213 39.2395 53.3289 39.0403C54.3364 38.8411 55.3807 38.9433 56.3298 39.3341C57.2789 39.725 58.0901 40.3868 58.6608 41.2359C59.2315 42.0851 59.5361 43.0834 59.5361 44.1047C59.5345 45.4737 58.9867 46.7861 58.013 47.7541C57.0393 48.7221 55.7192 49.2667 54.3422 49.2683ZM54.3422 39.9903C53.5236 39.9903 52.7235 40.2316 52.0429 40.6837C51.3623 41.1358 50.8318 41.7783 50.5186 42.5302C50.2053 43.282 50.1234 44.1093 50.2831 44.9074C50.4428 45.7055 50.8369 46.4386 51.4157 47.014C51.9945 47.5894 52.7319 47.9813 53.5348 48.1401C54.3376 48.2988 55.1697 48.2173 55.9259 47.9059C56.6822 47.5945 57.3285 47.0672 57.7833 46.3905C58.2381 45.7139 58.4808 44.9184 58.4808 44.1047C58.4808 43.5644 58.3737 43.0293 58.1657 42.5302C57.9578 42.031 57.6529 41.5774 57.2686 41.1953C56.8843 40.8133 56.4281 40.5102 55.9259 40.3034C55.4238 40.0967 54.8856 39.9903 54.3422 39.9903Z" fill="white"/>
<path d="M56.7136 50.4717C56.623 50.4721 56.5339 50.4492 56.4549 50.4052C56.3758 50.3612 56.3096 50.2977 56.2625 50.2208L55.383 48.7807C55.3472 48.7219 55.3233 48.6567 55.3128 48.5888C55.3023 48.5209 55.3053 48.4515 55.3217 48.3848C55.3382 48.318 55.3676 48.2551 55.4085 48.1997C55.4494 48.1443 55.5009 48.0974 55.56 48.0617C55.6191 48.026 55.6847 48.0023 55.753 47.9918C55.8213 47.9814 55.8911 47.9844 55.9582 48.0007C56.0254 48.0171 56.0886 48.0464 56.1444 48.087C56.2002 48.1277 56.2473 48.1788 56.2832 48.2376L57.1647 49.6777C57.2133 49.757 57.2397 49.8479 57.2412 49.9408C57.2427 50.0337 57.2193 50.1253 57.1733 50.2062C57.1274 50.2871 57.0605 50.3543 56.9797 50.401C56.8989 50.4477 56.8071 50.4721 56.7136 50.4717Z" fill="white"/>
</svg>
